<?xml version="1.0" encoding="utf-8"?>
<!-- Generator: Adobe Illustrator 17.0.0, SVG Export Plug-In . SVG Version: 6.00 Build 0)  -->
<!DOCTYPE svg PUBLIC "-//W3C//DTD SVG 1.1//EN" "http://www.w3.org/Graphics/SVG/1.1/DTD/svg11.dtd">
<svg version="1.1" id="Layer_1" xmlns="http://www.w3.org/2000/svg" xmlns:xlink="http://www.w3.org/1999/xlink" x="0px" y="0px"
	 width="24px" height="24px" viewBox="0 0 24 24" enable-background="new 0 0 24 24" xml:space="preserve">
<path fill="#FFFFFF" d="M4 22v-20h16v11.543c0 4.107-6 2.457-6 2.457s1.518 6-2.638 6h-7.362zm18-7.614v-14.386h-20v24h10.189c3.163 0 9.811-7.223 9.811-9.614zm-5-1.386h-8v-1h8v1zm0-4h-8v1h8v-1zm0-3h-8v1h8v-1zm-9 0h-1v1h1v-1zm0 3h-1v1h1v-1zm0 3h-1v1h1v-1z"/></svg>
